<svg width="165" height="100" viewBox="0 0 165 100" fill="none" xmlns="http://www.w3.org/2000/svg">
<path d="M49.5411 39.6568H31.7194V44.9373H44.3431C43.7243 52.363 37.5362 55.4983 31.7194 55.4983C24.2524 55.4983 17.7755 49.6403 17.7755 41.4307C17.7755 33.4275 23.9636 27.2807 31.7194 27.2807C37.7012 27.2807 41.249 31.1173 41.249 31.1173L44.9619 27.2807C44.9619 27.2807 40.2177 22.0002 31.5544 22.0002C20.5396 22.0002 12 31.3235 12 41.3482C12 51.2079 20.0445 60.8201 31.8431 60.8201C42.2391 60.8201 49.8298 53.6832 49.8298 43.1634C49.8298 40.9357 49.5411 39.6568 49.5411 39.6568Z" fill="#4285F4"/>
<path d="M64.1042 35.8202C56.8023 35.8202 51.563 41.5545 51.563 48.1964C51.563 54.962 56.6373 60.7788 64.1867 60.7788C71.0349 60.7788 76.6042 55.5396 76.6042 48.3614C76.6454 40.0693 70.1273 35.8202 64.1042 35.8202ZM64.1867 40.7294C67.7758 40.7294 71.1999 43.6172 71.1999 48.3201C71.1999 52.8993 67.8171 55.9109 64.1867 55.9109C60.1851 55.9109 57.0498 52.7343 57.0498 48.3201C57.0498 43.9472 60.1439 40.7294 64.1867 40.7294Z" fill="#EA4335"/>
<path d="M91.4134 35.8202C84.1114 35.8202 78.8722 41.5545 78.8722 48.1964C78.8722 54.962 83.9464 60.7788 91.4959 60.7788C98.344 60.7788 103.913 55.5396 103.913 48.3614C103.913 40.0693 97.3952 35.8202 91.4134 35.8202ZM91.4959 40.7294C95.085 40.7294 98.5091 43.6172 98.5091 48.3201C98.5091 52.8993 95.1262 55.9109 91.4959 55.9109C87.4943 55.9109 84.359 52.7343 84.359 48.3201C84.3177 43.9472 87.453 40.7294 91.4959 40.7294Z" fill="#FBBC05"/>
<path d="M118.147 35.8202C111.423 35.8202 106.183 41.6783 106.183 48.2789C106.183 55.7871 112.289 60.7788 118.064 60.7788C121.612 60.7788 123.51 59.3762 124.913 57.726V60.2013C124.913 64.4917 122.314 67.0907 118.353 67.0907C114.558 67.0907 112.619 64.2441 111.959 62.6352L107.173 64.6567C108.865 68.2458 112.289 71.9999 118.394 71.9999C125.078 71.9999 130.152 67.792 130.152 59.0049V36.5628H124.913V38.6667C123.304 36.9753 121.076 35.8202 118.147 35.8202ZM118.642 40.7294C121.942 40.7294 125.325 43.5347 125.325 48.3201C125.325 53.1881 121.942 55.8696 118.601 55.8696C115.012 55.8696 111.711 52.9818 111.711 48.3614C111.67 43.5759 115.135 40.7294 118.642 40.7294Z" fill="#4285F4"/>
<path d="M153.377 35.8202C147.065 35.8202 141.744 40.8532 141.744 48.2789C141.744 56.1584 147.684 60.8201 153.996 60.8201C159.276 60.8201 162.536 57.9323 164.433 55.3333L160.102 52.4455C158.988 54.1782 157.09 55.8696 153.996 55.8696C150.489 55.8696 148.88 53.9307 147.89 52.0742L164.639 45.1436L163.773 43.1221C162.164 39.1205 158.369 35.8202 153.377 35.8202ZM153.625 40.6056C155.894 40.6056 157.544 41.802 158.245 43.2872L147.065 47.9488C146.57 44.3185 149.994 40.6056 153.625 40.6056Z" fill="#EA4335"/>
<path d="M139.268 23.2791H133.782V60.0776H139.268V23.2791Z" fill="#34A853"/>
</svg>
